<?xml version="1.0" encoding="UTF-8"?>
<svg width="29px" height="24px" viewBox="0 0 29 24" version="1.1" xmlns="http://www.w3.org/2000/svg" xmlns:xlink="http://www.w3.org/1999/xlink">
    <title>icon/003-like</title>
    <g id="Symbols" stroke="none" stroke-width="1" fill="none" fill-rule="evenodd">
        <g id="header/main" transform="translate(-1072.000000, -71.000000)" fill="#000000" fill-rule="nonzero">
            <g id="Shape" transform="translate(1072.000000, 71.000000)">
                <path d="M5.15579336,14.9948584 L13.6307107,23.7145281 C13.7925125,23.8807004 14.0155367,23.9769053 14.2516799,23.9812783 C14.2954101,23.9812783 14.3391403,23.9769053 14.3828705,23.9725324 C14.4222277,23.9769053 14.465958,23.9812783 14.5053152,23.9812783 L14.5140612,23.9812783 C14.7458314,23.9812783 14.9688555,23.8850733 15.1350304,23.7145281 L23.5968286,15.0036043 L26.7279126,11.8725694 C29.4391865,9.16133808 29.4391865,4.74902776 26.7279126,2.03779644 C25.4160059,0.72591032 23.666797,2.42747696e-15 21.8126355,2.42747696e-15 C19.954101,2.42747696e-15 18.2092651,0.721537367 16.8973584,2.03779644 L14.3784975,4.55224484 L11.8640097,2.03779644 C10.5521029,0.72591032 8.802894,2.42747696e-15 6.94873252,2.42747696e-15 C5.09019802,2.42747696e-15 3.3453621,0.721537367 2.0334554,2.03779644 C-0.677818465,4.74902776 -0.677818465,9.16133808 2.0334554,11.8725694 L5.15579336,14.9948584 Z M3.2666477,3.27534235 C4.28118889,2.26081708 5.6149607,1.75355445 6.94873252,1.75355445 C8.28250434,1.75355445 9.61627616,2.26081708 10.6308173,3.27534235 L13.7619014,6.40637722 C14.1029971,6.74746762 14.6583709,6.74746762 14.9994667,6.40637722 L18.1305507,3.27534235 C20.1596331,1.24629181 23.4612649,1.24629181 25.4903473,3.27534235 C27.5194297,5.30439288 27.5194297,8.60597295 25.4903473,10.6350235 L22.3505173,13.7748043 L14.3784975,21.9784655 L6.40210473,13.7660584 L3.27102072,10.6350235 C1.23756533,8.60597295 1.23756533,5.30439288 3.2666477,3.27534235 L3.2666477,3.27534235 Z"></path>
            </g>
        </g>
    </g>
</svg>